<svg xmlns="http://www.w3.org/2000/svg" width="1200" height="630" viewBox="0 0 1200 630" role="img" aria-labelledby="title desc">
  <title id="title">Method One Solutions medical supply sourcing preview</title>
  <desc id="desc">Branded preview for Method One Solutions backordered and emergency medical supply sourcing.</desc>
  <defs>
    <linearGradient id="field" x1="0" y1="0" x2="1" y2="1">
      <stop offset="0" stop-color="#05070b"/>
      <stop offset="0.55" stop-color="#101820"/>
      <stop offset="1" stop-color="#2a0608"/>
    </linearGradient>
    <radialGradient id="signal" cx="72%" cy="42%" r="52%">
      <stop offset="0" stop-color="#8e090b" stop-opacity="0.52"/>
      <stop offset="0.55" stop-color="#8e090b" stop-opacity="0.14"/>
      <stop offset="1" stop-color="#8e090b" stop-opacity="0"/>
    </radialGradient>
    <filter id="shadow" x="-20%" y="-20%" width="140%" height="140%">
      <feDropShadow dx="0" dy="18" stdDeviation="24" flood-color="#000000" flood-opacity="0.35"/>
    </filter>
  </defs>
  <rect width="1200" height="630" fill="url(#field)"/>
  <rect width="1200" height="630" fill="url(#signal)"/>
  <g opacity="0.18">
    <path d="M0 130H1200M0 250H1200M0 370H1200M0 490H1200" stroke="#ffffff"/>
    <path d="M160 0V630M360 0V630M560 0V630M760 0V630M960 0V630" stroke="#ffffff"/>
  </g>
  <g filter="url(#shadow)">
    <rect x="74" y="78" width="1052" height="474" rx="18" fill="#070b10" fill-opacity="0.72" stroke="#ffffff" stroke-opacity="0.16"/>
    <image href="https://www.methodonesolutions.com/assets/brand/method-one-logo.png" x="110" y="112" width="360" height="82" preserveAspectRatio="xMinYMid meet"/>
    <text x="110" y="292" fill="#ffffff" font-family="Arial, Helvetica, sans-serif" font-size="54" font-weight="700">Backordered and Emergency</text>
    <text x="110" y="358" fill="#ffffff" font-family="Arial, Helvetica, sans-serif" font-size="54" font-weight="700">Medical Supply Sourcing</text>
    <text x="110" y="436" fill="#d8dde5" font-family="Arial, Helvetica, sans-serif" font-size="28">Federal-ready RFQ support for hard-to-find medical, dental,</text>
    <text x="110" y="476" fill="#d8dde5" font-family="Arial, Helvetica, sans-serif" font-size="28">laboratory, PPE, technology, and operational products.</text>
    <rect x="870" y="118" width="178" height="178" rx="89" fill="#8e090b" fill-opacity="0.28"/>
    <image href="https://www.methodonesolutions.com/assets/brand/method-one-sun-logo.png" x="906" y="154" width="106" height="106"/>
  </g>
</svg>
